HIERARCHY
ROOT joint_Root
{
	OFFSET 0.0 0.0 0.0
	CHANNELS 6 Xposition Yposition Zposition Zrotation Xrotation Yrotation 
	JOINT Hips
	{
		OFFSET 4.5925 91.4895 -427.239
		CHANNELS 6 Xposition Yposition Zposition Zrotation Xrotation Yrotation 
		JOINT Spine
		{
			OFFSET 15.7357 0.0 0.0
			CHANNELS 6 Xposition Yposition Zposition Zrotation Xrotation Yrotation 
			JOINT Chest
			{
				OFFSET 8.98455 -0.406207 0.0
				CHANNELS 6 Xposition Yposition Zposition Zrotation Xrotation Yrotation 
				JOINT Neck
				{
					OFFSET 16.3773 0.0 0.0
					CHANNELS 6 Xposition Yposition Zposition Zrotation Xrotation Yrotation 
					JOINT Head
					{
						OFFSET 6.45672 0.0 0.0
						CHANNELS 6 Xposition Yposition Zposition Zrotation Xrotation Yrotation 
						End Site
						{
							OFFSET 0.0 0.0 0.0
						}
					}
				}
				JOINT Shoulder_L
				{
					OFFSET 12.9942 -0.242716 4.98039
					CHANNELS 6 Xposition Yposition Zposition Zrotation Xrotation Yrotation 
					JOINT UpperArm_L
					{
						OFFSET 5.34809 0.0 0.0
						CHANNELS 6 Xposition Yposition Zposition Zrotation Xrotation Yrotation 
						JOINT LowerArm_L
						{
							OFFSET 24.3286 1.87007e-05 0.0
							CHANNELS 6 Xposition Yposition Zposition Zrotation Xrotation Yrotation 
							JOINT Hand_L
							{
								OFFSET 22.2916 0.0 0.0
								CHANNELS 6 Xposition Yposition Zposition Zrotation Xrotation Yrotation 
								End Site
								{
									OFFSET 0.0 0.0 0.0
								}
							}
						}
					}
				}
				JOINT Shoulder_R
				{
					OFFSET 12.9945 -0.242716 -4.98039
					CHANNELS 6 Xposition Yposition Zposition Zrotation Xrotation Yrotation 
					JOINT UpperArm_R
					{
						OFFSET -5.34813 0.0 0.0
						CHANNELS 6 Xposition Yposition Zposition Zrotation Xrotation Yrotation 
						JOINT LowerArm_R
						{
							OFFSET -24.3289 0.000322201 0.0
							CHANNELS 6 Xposition Yposition Zposition Zrotation Xrotation Yrotation 
							JOINT Hand_R
							{
								OFFSET -22.2915 -0.000108084 0.0
								CHANNELS 6 Xposition Yposition Zposition Zrotation Xrotation Yrotation 
								End Site
								{
									OFFSET 0.0 0.0 0.0
								}
							}
						}
					}
				}
			}
		}
		JOINT UpperLeg_L
		{
			OFFSET -2.19248 -6.46944 0.0
			CHANNELS 6 Xposition Yposition Zposition Zrotation Xrotation Yrotation 
			JOINT LowerLeg_L
			{
				OFFSET 39.0811 0.0 -1.23785e-05
				CHANNELS 6 Xposition Yposition Zposition Zrotation Xrotation Yrotation 
				JOINT Foot_L
				{
					OFFSET 40.9854 0.0 -1.26872e-05
					CHANNELS 6 Xposition Yposition Zposition Zrotation Xrotation Yrotation 
					JOINT Toes_L
					{
						OFFSET 11.7543 0.0 0.0
						CHANNELS 6 Xposition Yposition Zposition Zrotation Xrotation Yrotation 
						End Site
						{
							OFFSET 0.0 0.0 0.0
						}
					}
				}
			}
		}
		JOINT UpperLeg_R
		{
			OFFSET -2.19251 6.46944 0.0
			CHANNELS 6 Xposition Yposition Zposition Zrotation Xrotation Yrotation 
			JOINT LowerLeg_R
			{
				OFFSET -39.0811 -0.00228153 -0.0401928
				CHANNELS 6 Xposition Yposition Zposition Zrotation Xrotation Yrotation 
				JOINT Foot_R
				{
					OFFSET -40.9854 0.0 0.0
					CHANNELS 6 Xposition Yposition Zposition Zrotation Xrotation Yrotation 
					JOINT Toes_R
					{
						OFFSET -11.7543 0.0 0.0
						CHANNELS 6 Xposition Yposition Zposition Zrotation Xrotation Yrotation 
						End Site
						{
							OFFSET 0.0 0.0 0.0
						}
					}
				}
			}
		}
	}
}
MOTION
Frames:	4
Frame Time:	0.0333333
0.000000 0.000000 0.000000 0.000000 0.000000 -0.000000 -0.173808 90.056300 2.943740 89.725500 -3.446190 13.769100 15.735700 0.000005 -0.000001 87.762800 83.339400 -88.345900 8.984550 -0.406207 -0.000000 5.542900 -0.507483 -1.140290 16.377300 -0.000001 -0.000001 31.004700 -2.856040 -1.114050 6.456720 -0.000001 -0.000000 14.568400 -2.396940 -6.345890 12.994200 -0.242716 4.980390 -88.295500 -4.230830 -68.032200 5.348090 -0.000007 -0.000001 -63.932500 -44.549000 -80.482100 24.328600 0.000019 0.000005 25.917000 6.791940 -76.321700 22.291600 -0.000001 0.000005 18.969700 5.244960 1.565540 12.994500 -0.242716 -4.980390 90.855700 -2.953670 -73.835800 -5.348130 -0.000001 -0.000004 -59.551500 -41.904300 -75.707700 -24.328900 0.000322 -0.000009 5.998920 1.142900 -79.256700 -22.291500 -0.000108 -0.000004 25.533200 5.413450 -3.379720 -2.192480 -6.469440 -0.000000 -173.009000 -14.976700 5.874050 39.081100 -0.000007 -0.000012 -0.244333 0.384886 32.408600 40.985400 -0.000006 -0.000013 -0.067650 4.236510 -73.760000 11.754300 -0.000000 0.000003 -0.000214 -0.001956 -16.651200 -2.192510 6.469440 -0.000001 170.133000 19.698100 -172.396000 -39.081100 -0.002282 -0.040193 -0.297188 0.492995 31.363500 -40.985400 0.000008 0.000006 1.516140 12.723600 -73.712400 -11.754300 -0.000006 -0.000006 -0.002895 -0.039403 -18.175500
0.000000 0.000000 0.000000 0.000000 0.000000 -0.000000 -0.175831 90.036400 3.033690 89.735800 -3.406380 13.731200 15.735700 0.000005 -0.000001 87.771800 83.344700 -88.374400 8.984550 -0.406207 -0.000000 5.532360 -0.504557 -1.179340 16.377300 -0.000001 -0.000001 31.250700 -2.963900 -0.967822 6.456720 -0.000001 -0.000000 14.742500 -2.525010 -6.055450 12.994200 -0.242716 4.980390 -88.261800 -4.314740 -68.033000 5.348090 -0.000007 -0.000001 -64.099500 -44.528100 -80.461200 24.328600 0.000019 0.000005 25.852400 6.692140 -76.477100 22.291600 -0.000001 0.000005 18.877700 5.246400 1.527560 12.994500 -0.242716 -4.980390 90.863400 -2.981860 -73.842600 -5.348130 -0.000001 -0.000004 -59.781600 -41.873600 -75.943300 -24.328900 0.000322 -0.000009 6.004590 1.139740 -79.295700 -22.291500 -0.000108 -0.000004 25.608600 5.413380 -3.377300 -2.192480 -6.469440 -0.000000 -173.066000 -14.840600 5.870290 39.081100 -0.000007 -0.000012 -0.248204 0.390460 32.443400 40.985400 -0.000006 -0.000013 -0.104528 4.134630 -73.842800 11.754300 -0.000000 0.000003 -0.000232 -0.002100 -16.656400 -2.192510 6.469440 -0.000001 170.167000 19.573600 -172.396000 -39.081100 -0.002282 -0.040193 -0.297791 0.493189 31.404400 -40.985400 0.000008 0.000006 1.503050 12.568600 -73.810400 -11.754300 -0.000006 -0.000006 -0.002774 -0.038018 -18.119200
0.000000 0.000000 0.000000 0.000000 0.000000 -0.000000 -0.180672 90.014200 3.115040 89.745900 -3.375440 13.752900 15.735700 0.000005 -0.000001 87.811400 83.334900 -88.436600 8.984550 -0.406207 -0.000000 5.552250 -0.495791 -1.224830 16.377300 -0.000001 -0.000001 31.621200 -3.058510 -0.859222 6.456720 -0.000001 -0.000000 14.933000 -2.662010 -5.571070 12.994200 -0.242716 4.980390 -88.213600 -4.435080 -68.034400 5.348090 -0.000007 -0.000001 -64.281200 -44.480000 -80.400300 24.328600 0.000019 0.000005 25.844200 6.588890 -76.672600 22.291600 -0.000001 0.000005 18.950200 5.244470 1.578470 12.994500 -0.242716 -4.980390 90.874400 -3.020440 -73.846500 -5.348130 -0.000001 -0.000004 -59.905800 -41.804200 -76.076800 -24.328900 0.000322 -0.000009 5.975310 1.139190 -79.249200 -22.291500 -0.000108 -0.000004 25.750100 5.415590 -3.450760 -2.192480 -6.469440 -0.000000 -173.072000 -14.793100 5.919020 39.081100 -0.000007 -0.000012 -0.248125 0.389537 32.496500 40.985400 -0.000006 -0.000013 -0.120739 4.109940 -73.924300 11.754300 -0.000000 0.000003 -0.000226 -0.002050 -16.654600 -2.192510 6.469440 -0.000001 170.205000 19.473100 -172.369000 -39.081100 -0.002282 -0.040193 -0.288020 0.475354 31.502400 -40.985400 0.000008 0.000006 1.662640 12.351000 -73.968200 -11.754300 -0.000006 -0.000006 -0.002856 -0.038966 -18.157700
0.000000 0.000000 0.000000 0.000000 0.000000 -0.000000 -0.184710 89.999800 3.183980 89.755600 -3.332090 13.764700 15.735700 0.000005 -0.000001 87.918800 83.340300 -88.576700 8.984550 -0.406207 -0.000000 5.542270 -0.469792 -1.291580 16.377300 -0.000001 -0.000001 32.108600 -3.175020 -0.670633 6.456720 -0.000001 -0.000000 15.180400 -2.826740 -5.030030 12.994200 -0.242716 4.980390 -88.160500 -4.568360 -68.039000 5.348090 -0.000007 -0.000001 -64.552500 -44.333100 -80.455100 24.328600 0.000019 0.000005 25.794200 6.517250 -76.783500 22.291600 -0.000001 0.000005 19.073800 5.245060 1.563000 12.994500 -0.242716 -4.980390 90.882000 -3.044700 -73.835400 -5.348130 -0.000001 -0.000004 -59.932900 -41.694000 -76.053200 -24.328900 0.000322 -0.000009 5.947450 1.141590 -79.177400 -22.291500 -0.000108 -0.000004 25.823600 5.415900 -3.461550 -2.192480 -6.469440 -0.000000 -173.108000 -14.682500 5.951150 39.081100 -0.000007 -0.000012 -0.250758 0.393291 32.521600 40.985400 -0.000006 -0.000013 -0.157249 4.015050 -73.978800 11.754300 -0.000000 0.000003 -0.000209 -0.001923 -16.650000 -2.192510 6.469440 -0.000001 170.249000 19.391100 -172.354000 -39.081100 -0.002282 -0.040193 -0.274386 0.451717 31.580800 -40.985400 0.000008 0.000006 1.869210 12.133600 -74.113100 -11.754300 -0.000006 -0.000006 -0.002599 -0.035981 -18.036300
